{
    "asset" : {
        "generator" : "Khronos glTF Blender I/O v1.6.16",
        "version" : "2.0"
    },
    "scene" : 0,
    "scenes" : [
        {
            "name" : "Scene",
            "nodes" : [
                0,
                1,
                2,
                3,
                4,
                5
            ]
        }
    ],
    "nodes" : [
        {
            "mesh" : 0,
            "name" : "Ropes",
            "scale" : [
                0.05765775218605995,
                0.05765775218605995,
                0.05765775218605995
            ],
            "translation" : [
                1.114958643913269,
                9.499283790588379,
                -3.3928375244140625
            ]
        },
        {
            "mesh" : 1,
            "name" : "Spheres",
            "scale" : [
                0.05765775218605995,
                0.05765775218605995,
                0.05765775218605995
            ],
            "translation" : [
                1.1149585247039795,
                10.93887996673584,
                2.7307114601135254
            ]
        },
        {
            "mesh" : 2,
            "name" : "Pezzo curvo",
            "rotation" : [
                0.7071068286895752,
                0,
                0,
                0.7071068286895752
            ],
            "scale" : [
                0.44927680492401123,
                1,
                1
            ],
            "translation" : [
                0.8993451595306396,
                13.212906837463379,
                0.42626869678497314
            ]
        },
        {
            "mesh" : 3,
            "name" : "Pezzo obliquo",
            "scale" : [
                0.5125955939292908,
                1,
                1
            ],
            "translation" : [
                0.8951236009597778,
                4.988913536071777,
                1.2982203960418701
            ]
        },
        {
            "mesh" : 4,
            "name" : "Base",
            "translation" : [
                0.8951236009597778,
                5.788531303405762,
                0
            ]
        },
        {
            "name" : "Camera",
            "rotation" : [
                0.5553613305091858,
                0.37417104840278625,
                -0.3073490262031555,
                0.6760964393615723
            ],
            "translation" : [
                26.577594757080078,
                11.05567741394043,
                14.777619361877441
            ]
        }
    ],
    "materials" : [
        {
            "doubleSided" : true,
            "name" : "Rope",
            "pbrMetallicRoughness" : {}
        },
        {
            "doubleSided" : true,
            "name" : "Gold",
            "pbrMetallicRoughness" : {}
        },
        {
            "doubleSided" : true,
            "name" : "Wood",
            "pbrMetallicRoughness" : {}
        }
    ],
    "meshes" : [
        {
            "name" : "Sphere.041",
            "primitives" : [
                {
                    "attributes" : {
                        "POSITION" : 0,
                        "NORMAL" : 1
                    },
                    "indices" : 2,
                    "material" : 0
                }
            ]
        },
        {
            "name" : "Sphere",
            "primitives" : [
                {
                    "attributes" : {
                        "POSITION" : 3,
                        "NORMAL" : 4
                    },
                    "indices" : 5,
                    "material" : 1
                }
            ]
        },
        {
            "name" : "Cylinder",
            "primitives" : [
                {
                    "attributes" : {
                        "POSITION" : 6,
                        "NORMAL" : 7
                    },
                    "indices" : 8,
                    "material" : 2
                }
            ]
        },
        {
            "name" : "Cube.001",
            "primitives" : [
                {
                    "attributes" : {
                        "POSITION" : 9,
                        "NORMAL" : 10
                    },
                    "indices" : 11,
                    "material" : 2
                }
            ]
        },
        {
            "name" : "Cube",
            "primitives" : [
                {
                    "attributes" : {
                        "POSITION" : 12,
                        "NORMAL" : 13
                    },
                    "indices" : 14,
                    "material" : 1
                },
                {
                    "attributes" : {
                        "POSITION" : 15,
                        "NORMAL" : 16
                    },
                    "indices" : 17,
                    "material" : 2
                }
            ]
        }
    ],
    "accessors" : [
        {
            "bufferView" : 0,
            "componentType" : 5126,
            "count" : 7488,
            "max" : [
                -0.811310887336731,
                26.913484573364258,
                106.32202911376953
            ],
            "min" : [
                -4.118553161621094,
                -124.70735168457031,
                -3.0448479652404785
            ],
            "type" : "VEC3"
        },
        {
            "bufferView" : 1,
            "componentType" : 5126,
            "count" : 7488,
            "type" : "VEC3"
        },
        {
            "bufferView" : 2,
            "componentType" : 5123,
            "count" : 14508,
            "type" : "SCALAR"
        },
        {
            "bufferView" : 3,
            "componentType" : 5126,
            "count" : 21294,
            "max" : [
                1.000000238418579,
                3.153642177581787,
                1.0000003576278687
            ],
            "min" : [
                -1.9935429096221924,
                -40.44248962402344,
                -107.23816680908203
            ],
            "type" : "VEC3"
        },
        {
            "bufferView" : 4,
            "componentType" : 5126,
            "count" : 21294,
            "type" : "VEC3"
        },
        {
            "bufferView" : 5,
            "componentType" : 5123,
            "count" : 123318,
            "type" : "SCALAR"
        },
        {
            "bufferView" : 6,
            "componentType" : 5126,
            "count" : 272,
            "max" : [
                0.34580036997795105,
                2.5676887035369873,
                4.914248943328857
            ],
            "min" : [
                -0.12521499395370483,
                -5.359743118286133,
                1.6634258031845093
            ],
            "type" : "VEC3"
        },
        {
            "bufferView" : 7,
            "componentType" : 5126,
            "count" : 272,
            "type" : "VEC3"
        },
        {
            "bufferView" : 8,
            "componentType" : 5123,
            "count" : 1440,
            "type" : "SCALAR"
        },
        {
            "bufferView" : 9,
            "componentType" : 5126,
            "count" : 37,
            "max" : [
                0.857150137424469,
                4.432271480560303,
                2.120933771133423
            ],
            "min" : [
                -0.019951701164245605,
                -4.402023792266846,
                -6.398724555969238
            ],
            "type" : "VEC3"
        },
        {
            "bufferView" : 10,
            "componentType" : 5126,
            "count" : 37,
            "type" : "VEC3"
        },
        {
            "bufferView" : 11,
            "componentType" : 5123,
            "count" : 150,
            "type" : "SCALAR"
        },
        {
            "bufferView" : 12,
            "componentType" : 5126,
            "count" : 504,
            "max" : [
                0.21466688811779022,
                5.654652118682861,
                3.5221054553985596
            ],
            "min" : [
                0,
                -2.8853328227996826,
                2.848574638366699
            ],
            "type" : "VEC3"
        },
        {
            "bufferView" : 13,
            "componentType" : 5126,
            "count" : 504,
            "type" : "VEC3"
        },
        {
            "bufferView" : 14,
            "componentType" : 5123,
            "count" : 756,
            "type" : "SCALAR"
        },
        {
            "bufferView" : 15,
            "componentType" : 5126,
            "count" : 755,
            "max" : [
                1.074965476989746,
                5.910662651062012,
                4.133389949798584
            ],
            "min" : [
                -0.005134321749210358,
                -5.7907185554504395,
                0.6443822383880615
            ],
            "type" : "VEC3"
        },
        {
            "bufferView" : 16,
            "componentType" : 5126,
            "count" : 755,
            "type" : "VEC3"
        },
        {
            "bufferView" : 17,
            "componentType" : 5123,
            "count" : 1161,
            "type" : "SCALAR"
        }
    ],
    "bufferViews" : [
        {
            "buffer" : 0,
            "byteLength" : 89856,
            "byteOffset" : 0
        },
        {
            "buffer" : 0,
            "byteLength" : 89856,
            "byteOffset" : 89856
        },
        {
            "buffer" : 0,
            "byteLength" : 29016,
            "byteOffset" : 179712
        },
        {
            "buffer" : 0,
            "byteLength" : 255528,
            "byteOffset" : 208728
        },
        {
            "buffer" : 0,
            "byteLength" : 255528,
            "byteOffset" : 464256
        },
        {
            "buffer" : 0,
            "byteLength" : 246636,
            "byteOffset" : 719784
        },
        {
            "buffer" : 0,
            "byteLength" : 3264,
            "byteOffset" : 966420
        },
        {
            "buffer" : 0,
            "byteLength" : 3264,
            "byteOffset" : 969684
        },
        {
            "buffer" : 0,
            "byteLength" : 2880,
            "byteOffset" : 972948
        },
        {
            "buffer" : 0,
            "byteLength" : 444,
            "byteOffset" : 975828
        },
        {
            "buffer" : 0,
            "byteLength" : 444,
            "byteOffset" : 976272
        },
        {
            "buffer" : 0,
            "byteLength" : 300,
            "byteOffset" : 976716
        },
        {
            "buffer" : 0,
            "byteLength" : 6048,
            "byteOffset" : 977016
        },
        {
            "buffer" : 0,
            "byteLength" : 6048,
            "byteOffset" : 983064
        },
        {
            "buffer" : 0,
            "byteLength" : 1512,
            "byteOffset" : 989112
        },
        {
            "buffer" : 0,
            "byteLength" : 9060,
            "byteOffset" : 990624
        },
        {
            "buffer" : 0,
            "byteLength" : 9060,
            "byteOffset" : 999684
        },
        {
            "buffer" : 0,
            "byteLength" : 2322,
            "byteOffset" : 1008744
        }
    ],
    "buffers" : [
        {
            "byteLength" : 1011068,
            "uri" : "data:application/octet-stream;base64,"
        }
    ]
}
