<?xml version="1.0" encoding="UTF-8" standalone="no"?>
<!DOCTYPE svg PUBLIC "-//W3C//DTD SVG 1.1//EN" "http://www.w3.org/Graphics/SVG/1.1/DTD/svg11.dtd">
<svg width="100%" height="100%" viewBox="0 0 778 1122" version="1.1" xmlns="http://www.w3.org/2000/svg" xmlns:xlink="http://www.w3.org/1999/xlink" xml:space="preserve" xmlns:serif="http://www.serif.com/" style="fill-rule:evenodd;clip-rule:evenodd;stroke-linejoin:round;stroke-miterlimit:2;">
    <g transform="matrix(1,0,0,1,-891.859,-1334.47)">
        <g transform="matrix(1,0,0,1,50.9174,299.139)">
            <g transform="matrix(1.46597,0,0,1.05711,-713.576,-97.9062)">
                <rect x="1531.37" y="1329.21" width="24.606" height="773.977" style="fill:rgb(171,111,49);"/>
                <path d="M1531.37,1305.12C1521.78,1305.12 1514,1315.91 1514,1329.21L1514,2103.19C1514,2116.49 1521.78,2127.27 1531.37,2127.27L1555.98,2127.27C1565.57,2127.27 1573.35,2116.49 1573.35,2103.19L1573.35,1329.21C1573.35,1315.91 1565.57,1305.12 1555.98,1305.12L1531.37,1305.12ZM1531.37,1329.21L1555.98,1329.21L1555.98,2103.19L1531.37,2103.19L1531.37,1329.21Z"/>
            </g>
            <g transform="matrix(1,0,0,1,0,22)">
                <path d="M1175.59,1765.85C1180.07,1777.48 1155.91,1871.43 1155.91,1871.43C1155.91,1871.43 1072,2040.6 1050.12,2084.71C1046.52,2091.98 1040.19,2097.53 1032.52,2100.16C1008.05,2108.33 956.533,2117.92 959.954,2050.38C959.999,2049.49 1062.85,1843.69 1062.85,1843.69L1073.59,1647.74C1073.59,1647.74 1171.12,1754.21 1175.59,1765.85Z" style="fill:rgb(87,87,87);"/>
                <path d="M1198.93,1756.87C1197.69,1753.66 1192.01,1744.71 1182.59,1733.24C1155.06,1699.69 1092.03,1630.85 1092.03,1630.85C1085.23,1623.43 1074.65,1620.81 1065.17,1624.2C1055.7,1627.58 1049.18,1636.32 1048.63,1646.37C1048.63,1646.37 1039.87,1806.15 1038.17,1837.15C1024.6,1864.32 955.457,2002.72 940.407,2033.36C935.768,2042.8 934.997,2048.89 934.986,2049.12C932.972,2088.87 946.901,2109.36 963.037,2120.19C985.977,2135.59 1019.95,2130.71 1040.43,2123.88C1040.5,2123.86 1040.56,2123.84 1040.63,2123.81C1054.53,2119.04 1065.99,2108.98 1072.52,2095.82C1094.4,2051.71 1178.31,1882.54 1178.31,1882.54C1179.08,1880.98 1179.69,1879.34 1180.12,1877.65C1180.12,1877.65 1196.03,1815.52 1200.06,1784.51C1201.8,1771.08 1200.53,1761.04 1198.93,1756.87ZM1175.59,1765.85C1180.07,1777.48 1155.91,1871.43 1155.91,1871.43C1155.91,1871.43 1072,2040.6 1050.12,2084.71C1046.52,2091.98 1040.19,2097.53 1032.52,2100.16C1008.05,2108.33 956.533,2117.92 959.954,2050.38C959.999,2049.49 1062.85,1843.69 1062.85,1843.69L1073.59,1647.74C1073.59,1647.74 1171.12,1754.21 1175.59,1765.85Z"/>
            </g>
            <g transform="matrix(1,0,0,1,0,28)">
                <path d="M1080.75,1592.26C1081.6,1590.05 1240.02,1643.26 1240.02,1643.26C1240.02,1643.26 1329.33,1750.66 1368.18,1797.37C1379.36,1810.81 1383.8,1828.61 1380.26,1845.73C1368.67,1901.79 1342.43,2028.69 1333.97,2069.61C1331.88,2079.73 1325.77,2088.56 1317.04,2094.09C1298.16,2106.09 1264.14,2116.53 1237.33,2062.91C1236.44,2061.12 1282.07,1849.06 1282.07,1849.06C1282.07,1849.06 1216.78,1799.96 1157.65,1744.32C1107.81,1697.42 1046.32,1681.56 1080.75,1592.26Z" style="fill:rgb(147,147,147);"/>
                <path d="M1057.42,1583.27C1044.67,1616.34 1043.5,1641.36 1048.48,1661.6C1053.71,1682.85 1065.85,1699.52 1082.16,1714.61C1098.89,1730.08 1120.64,1743.82 1140.52,1762.53C1184.65,1804.05 1232.15,1842 1254.31,1859.25C1245.07,1902.35 1219.33,2022.63 1213.8,2051.84C1211.24,2065.41 1214.67,2073.48 1214.97,2074.09C1233.45,2111.05 1256.07,2124.12 1275.67,2127.7C1296.71,2131.53 1316.47,2124.07 1330.44,2115.19C1344.88,2106.04 1354.99,2091.42 1358.45,2074.67C1366.91,2033.75 1393.15,1906.85 1404.75,1850.79C1409.83,1826.22 1403.44,1800.67 1387.4,1781.38C1348.56,1734.68 1259.24,1627.28 1259.24,1627.28C1256.27,1623.71 1252.38,1621.04 1247.98,1619.56C1247.98,1619.56 1118.4,1576.07 1091.86,1569C1081.88,1566.34 1075.44,1567.76 1074.08,1568.14C1063.92,1570.98 1059.6,1577.61 1057.42,1583.27L1057.42,1583.27ZM1080.75,1592.26C1081.6,1590.05 1240.02,1643.26 1240.02,1643.26C1240.02,1643.26 1329.33,1750.66 1368.18,1797.37C1379.36,1810.81 1383.8,1828.61 1380.26,1845.73C1368.67,1901.79 1342.43,2028.69 1333.97,2069.61C1331.88,2079.73 1325.77,2088.56 1317.04,2094.09C1298.16,2106.09 1264.14,2116.53 1237.33,2062.91C1236.44,2061.12 1282.07,1849.06 1282.07,1849.06C1282.07,1849.06 1216.78,1799.96 1157.65,1744.32C1107.81,1697.42 1046.32,1681.56 1080.75,1592.26Z"/>
            </g>
            <g transform="matrix(50.388,-2.48386e-16,5.02353e-16,50.388,-6005.25,-9782.34)">
                <path d="M143.84,219.189C144.748,219.236 145.523,218.562 145.572,217.682C145.62,216.802 144.926,216.05 144.02,216.002C143.112,215.954 142.337,216.628 142.288,217.509C142.239,218.389 142.934,219.141 143.84,219.189Z" style="fill:rgb(242,161,140);"/>
                <path d="M143.814,219.684C143.814,219.684 143.814,219.684 143.814,219.684C145,219.746 146.003,218.858 146.067,217.709C146.067,217.709 146.067,217.709 146.067,217.709C146.131,216.56 145.23,215.57 144.046,215.507C144.046,215.507 144.046,215.507 144.046,215.507C142.861,215.444 141.857,216.332 141.793,217.481C141.729,218.632 142.63,219.622 143.814,219.684ZM143.84,219.189C144.748,219.236 145.523,218.562 145.572,217.682C145.62,216.802 144.926,216.05 144.02,216.002C143.112,215.954 142.337,216.628 142.288,217.509C142.239,218.389 142.934,219.141 143.84,219.189Z"/>
            </g>
            <g transform="matrix(1.0797,-0.423833,0.423833,1.0797,-96.1336,599.431)">
                <g transform="matrix(1,0,0,1,-50.9174,-299.139)">
                    <clipPath id="_clip1">
                        <rect x="845.841" y="1054.99" width="212.627" height="91.934"/>
                    </clipPath>
                    <g clip-path="url(#_clip1)">
                        <circle cx="944.14" cy="1146.69" r="71.897" style="fill:rgb(255,0,0);"/>
                        <path d="M944.14,1064.02C921.325,1064.02 900.656,1073.28 885.691,1088.24C870.726,1103.21 861.466,1123.88 861.466,1146.69C861.466,1169.51 870.726,1190.17 885.691,1205.14C900.656,1220.11 921.325,1229.36 944.14,1229.36C966.955,1229.36 987.624,1220.11 1002.59,1205.14C1017.55,1190.17 1026.81,1169.51 1026.81,1146.69C1026.81,1123.88 1017.55,1103.21 1002.59,1088.24C987.624,1073.28 966.955,1064.02 944.14,1064.02L944.14,1064.02ZM944.14,1085.57C961.006,1085.57 976.285,1092.42 987.348,1103.48C998.412,1114.55 1005.26,1129.82 1005.26,1146.69C1005.26,1163.56 998.412,1178.84 987.348,1189.9C976.285,1200.96 961.006,1207.81 944.14,1207.81C927.273,1207.81 911.994,1200.96 900.931,1189.9C889.868,1178.84 883.02,1163.56 883.02,1146.69C883.02,1129.82 889.868,1114.55 900.931,1103.48C911.994,1092.42 927.273,1085.57 944.14,1085.57L944.14,1085.57Z"/>
                    </g>
                </g>
                <g transform="matrix(0.882837,-4.95849e-17,-3.93034e-18,1,50.1696,-299.139)">
                    <path d="M872.243,1146.69L1083.45,1146.69" style="fill:none;"/>
                    <path d="M872.243,1157.47L1083.45,1157.47C1090.19,1157.47 1095.66,1152.64 1095.66,1146.69C1095.66,1140.74 1090.19,1135.91 1083.45,1135.91L872.243,1135.91C865.506,1135.91 860.036,1140.74 860.036,1146.69C860.036,1152.64 865.506,1157.47 872.243,1157.47Z"/>
                </g>
            </g>
            <g transform="matrix(1.09086,0,0,1.03248,-141.8,-93.4434)">
                <path d="M1224.81,1296.16C1223.87,1301.75 1244.53,1311.9 1270.03,1312.59C1281.04,1312.88 1292.74,1311.25 1303.88,1306.79C1317.31,1301.4 1330.06,1291.93 1338.55,1276.99C1345.12,1265.43 1348.66,1250.49 1349.06,1232.25C1348.87,1222.93 1347.29,1214.43 1342.96,1205.13C1338.61,1195.8 1331.99,1185.97 1322.54,1173.11C1328.15,1187.69 1331.7,1198.68 1333.66,1208.52C1335.28,1216.62 1335.34,1223.5 1333.91,1230.78C1331.69,1245.36 1326.58,1256.31 1321.02,1265.5C1314.32,1276.56 1306.09,1284.49 1296.61,1290.01C1265.32,1308.25 1225.18,1303.5 1224.81,1296.16Z" style="fill-opacity:0.4;"/>
            </g>
            <g transform="matrix(1,0,0,1,8.62988,-3.71456)">
                <path d="M1415.74,1425.57L1543.69,1354.88C1543.69,1354.88 1618.42,1362.04 1565.17,1422.88C1563.99,1424.23 1413.95,1501.62 1413.95,1501.62L1415.74,1425.57Z" style="fill:rgb(242,161,140);"/>
                <path d="M1403.65,1403.68C1395.87,1407.98 1390.96,1416.09 1390.75,1424.98L1388.96,1501.03C1388.75,1509.86 1393.21,1518.14 1400.69,1522.82C1408.17,1527.5 1417.57,1527.89 1425.41,1523.84C1425.41,1523.84 1547.25,1460.99 1572.48,1447.44C1580.07,1443.36 1583.66,1439.71 1583.98,1439.35C1607.36,1412.64 1611.02,1391.79 1608.7,1377.38C1605.89,1359.95 1594.21,1347.54 1579.87,1339.99C1564.23,1331.76 1546.08,1329.99 1546.08,1329.99C1541.06,1329.51 1536.02,1330.56 1531.61,1333L1403.65,1403.68ZM1415.74,1425.57L1543.69,1354.88C1543.69,1354.88 1618.42,1362.04 1565.17,1422.88C1563.99,1424.23 1413.95,1501.62 1413.95,1501.62L1415.74,1425.57Z"/>
            </g>
            <g transform="matrix(1,0,0,1,-7.02689,-273.608)">
                <path d="M1091.82,1861.06L1251.5,1914.81L1305.51,1725.67L1415.48,1772.39L1418.24,1695.35C1418.24,1695.35 1267.55,1526.31 1172.89,1624.14C1138.57,1659.6 1094.52,1737.9 1091.82,1861.06Z" style="fill:rgb(7,49,255);"/>
                <path d="M1066.83,1860.52C1066.59,1871.45 1073.48,1881.27 1083.85,1884.76L1243.53,1938.5C1250,1940.68 1257.09,1940.11 1263.13,1936.93C1269.18,1933.76 1273.66,1928.24 1275.54,1921.67L1321.78,1759.75C1321.78,1759.75 1405.7,1795.4 1405.7,1795.4C1413.28,1798.61 1421.95,1797.9 1428.89,1793.48C1435.84,1789.06 1440.16,1781.51 1440.46,1773.28L1443.22,1696.25C1443.45,1689.8 1441.19,1683.52 1436.9,1678.71C1436.9,1678.71 1378.57,1613.56 1310.05,1583.99C1258.08,1561.56 1201.15,1558.97 1154.92,1606.75C1118.11,1644.79 1069.72,1728.4 1066.83,1860.52ZM1091.82,1861.06L1251.5,1914.81L1305.51,1725.67L1415.48,1772.39L1418.24,1695.35C1418.24,1695.35 1267.55,1526.31 1172.89,1624.14C1138.57,1659.6 1094.52,1737.9 1091.82,1861.06Z"/>
            </g>
            <g transform="matrix(1,0,0,1,-15.69,-19.3108)">
                <path d="M1141.85,1377.78C1141.85,1377.78 1141.85,1377.78 1141.85,1377.78C1139.81,1361.43 1128.4,1347.78 1112.67,1342.87C1103.58,1340.02 1093.54,1336.89 1085.19,1334.28C1071.25,1329.92 1056.35,1329.6 1042.23,1333.37C997.149,1345.62 904.067,1387.73 882.368,1528.77C875.657,1572.39 917.04,1586.93 917.04,1586.93C917.04,1586.93 963.792,1605.54 997.729,1619.05C1018.97,1627.5 1043.14,1623.55 1060.58,1608.77C1072.51,1598.65 1083.69,1589.17 1083.69,1589.17L1141.85,1377.78Z" style="fill:rgb(255,0,0);"/>
                <path d="M908.07,1610.26L907.794,1610.16C907.794,1610.16 954.546,1628.77 988.483,1642.28C1018.31,1654.15 1052.26,1648.6 1076.74,1627.83C1088.68,1617.72 1099.86,1608.24 1099.86,1608.24C1103.69,1604.98 1106.46,1600.65 1107.8,1595.8L1165.1,1387.51L1165.1,1387.51C1166.61,1384.05 1167.3,1379.83 1166.66,1374.68C1163.4,1348.61 1145.21,1326.84 1120.13,1319C1111.03,1316.16 1101,1313.02 1092.65,1310.42C1074.19,1304.65 1054.48,1304.23 1035.79,1309.21C1035.75,1309.22 1035.71,1309.23 1035.67,1309.24C985.729,1322.82 881.698,1368.71 857.658,1524.97C848.4,1585.15 901.408,1607.68 908.07,1610.26ZM1141.85,1377.78C1141.85,1377.78 1141.85,1377.78 1141.85,1377.78C1139.81,1361.43 1128.4,1347.78 1112.67,1342.87C1103.58,1340.02 1093.54,1336.89 1085.19,1334.28C1071.25,1329.92 1056.35,1329.6 1042.23,1333.37C997.149,1345.62 904.067,1387.73 882.368,1528.77C875.657,1572.39 917.04,1586.93 917.04,1586.93C917.04,1586.93 963.792,1605.54 997.729,1619.05C1018.97,1627.5 1043.14,1623.55 1060.58,1608.77C1072.51,1598.65 1083.69,1589.17 1083.69,1589.17L1141.85,1377.78Z"/>
            </g>
            <g transform="matrix(1.05733,0,0,1.06143,-74.5377,-112.569)">
                <path d="M1125.1,1354.59C1086.88,1476.24 1054.88,1572.79 1054.59,1573.47C1040.35,1606.65 930.682,1579.2 907.405,1577.54C931.058,1589.17 1008.13,1626.19 1029.77,1618.79C1032.68,1617.79 1045.77,1614.62 1048.26,1612.81L1070.71,1596.27C1074.43,1593.55 1078.86,1591.28 1080.08,1586.84C1080.08,1586.84 1138.06,1378.85 1138.78,1377.73C1140.85,1374.5 1126.69,1353.12 1125.1,1354.59Z" style="fill-opacity:0.4;"/>
            </g>
            <g transform="matrix(1.0975,0,0,1.12141,-140.721,-188.286)">
                <path d="M1265.66,1635.91C1265.66,1635.91 1296.67,1516.31 1312.84,1468.27C1312.84,1468.27 1417.41,1507.35 1417.41,1507.35C1422.31,1508.81 1568.55,1437.97 1568.55,1437.97L1586.09,1401.51L1419.19,1486.34C1419.19,1486.34 1339.37,1453.94 1311.29,1442.55C1308.76,1441.52 1305.91,1441.54 1303.4,1442.59C1300.88,1443.65 1298.9,1445.66 1297.92,1448.16C1282.22,1488.16 1222.45,1640.47 1222.45,1640.47L1265.66,1635.91Z" style="fill-opacity:0.4;"/>
            </g>
        </g>
    </g>
</svg>
