{
    "asset" : {
        "generator" : "Khronos glTF Blender I/O v1.6.16",
        "version" : "2.0"
    },
    "scene" : 0,
    "scenes" : [
        {
            "name" : "Scene",
            "nodes" : [
                4,
                5
            ]
        }
    ],
    "nodes" : [
        {
            "mesh" : 0,
            "name" : "Cube",
            "scale" : [
                1.3607338666915894,
                1.0906683206558228,
                1.6203243732452393
            ],
            "translation" : [
                -4.481100559234619,
                1.5719318389892578,
                0.03998160362243652
            ]
        },
        {
            "mesh" : 1,
            "name" : "Cube.001",
            "scale" : [
                1.3607338666915894,
                1.0906683206558228,
                1.6203243732452393
            ],
            "translation" : [
                -4.815658092498779,
                1.462853193283081,
                0.008935749530792236
            ]
        },
        {
            "mesh" : 2,
            "name" : "Eyes",
            "rotation" : [
                0,
                0,
                -0.8308728933334351,
                0.5564624071121216
            ],
            "scale" : [
                0.2412969022989273,
                0.37831366062164307,
                0.34493526816368103
            ],
            "translation" : [
                4.350924968719482,
                -0.6417378187179565,
                0.2508278787136078
            ]
        },
        {
            "mesh" : 3,
            "name" : "Spikes",
            "scale" : [
                0.48991432785987854,
                0.3926807940006256,
                0.5833764672279358
            ],
            "translation" : [
                2.0346455574035645,
                0.6241183280944824,
                1.3063240051269531
            ]
        },
        {
            "children" : [
                0,
                1,
                2,
                3
            ],
            "mesh" : 4,
            "name" : "Body",
            "scale" : [
                0.7348975539207458,
                0.916869044303894,
                0.6171603798866272
            ],
            "translation" : [
                1.3517236709594727,
                2.1524720191955566,
                0.01963973045349121
            ]
        },
        {
            "name" : "Camera",
            "rotation" : [
                0.6715618371963501,
                0.25533735752105713,
                -0.3015972971916199,
                0.626774787902832
            ],
            "scale" : [
                0.918654203414917,
                0.9427716732025146,
                0.986156702041626
            ],
            "translation" : [
                8.729973793029785,
                1.2026976346969604,
                6.733461380004883
            ]
        }
    ],
    "meshes" : [
        {
            "name" : "Cube.003",
            "primitives" : [
                {
                    "attributes" : {
                        "POSITION" : 0,
                        "NORMAL" : 1
                    },
                    "indices" : 2
                }
            ]
        },
        {
            "name" : "Cube.004",
            "primitives" : [
                {
                    "attributes" : {
                        "POSITION" : 3,
                        "NORMAL" : 4
                    },
                    "indices" : 5
                }
            ]
        },
        {
            "name" : "Sphere",
            "primitives" : [
                {
                    "attributes" : {
                        "POSITION" : 6,
                        "NORMAL" : 7
                    },
                    "indices" : 8
                }
            ]
        },
        {
            "name" : "Cube.001",
            "primitives" : [
                {
                    "attributes" : {
                        "POSITION" : 9,
                        "NORMAL" : 10
                    },
                    "indices" : 11
                }
            ]
        },
        {
            "name" : "Cube",
            "primitives" : [
                {
                    "attributes" : {
                        "POSITION" : 12,
                        "NORMAL" : 13
                    },
                    "indices" : 14
                }
            ]
        }
    ],
    "accessors" : [
        {
            "bufferView" : 0,
            "componentType" : 5126,
            "count" : 772,
            "max" : [
                -1.3813042640686035,
                -0.8819286823272705,
                0.4848223924636841
            ],
            "min" : [
                -1.9091135263442993,
                -1.5808687210083008,
                -0.4848223924636841
            ],
            "type" : "VEC3"
        },
        {
            "bufferView" : 1,
            "componentType" : 5126,
            "count" : 772,
            "type" : "VEC3"
        },
        {
            "bufferView" : 2,
            "componentType" : 5123,
            "count" : 4608,
            "type" : "SCALAR"
        },
        {
            "bufferView" : 3,
            "componentType" : 5126,
            "count" : 246,
            "max" : [
                -1.6243493556976318,
                -1.0720529556274414,
                0.19092446565628052
            ],
            "min" : [
                -2.2035460472106934,
                -1.651536226272583,
                -0.19092446565628052
            ],
            "type" : "VEC3"
        },
        {
            "bufferView" : 4,
            "componentType" : 5126,
            "count" : 246,
            "type" : "VEC3"
        },
        {
            "bufferView" : 5,
            "componentType" : 5123,
            "count" : 1452,
            "type" : "SCALAR"
        },
        {
            "bufferView" : 6,
            "componentType" : 5126,
            "count" : 3968,
            "max" : [
                0.14533519744873047,
                0.09275200963020325,
                0.08469145745038986
            ],
            "min" : [
                -0.07499361038208008,
                -0.11484380066394806,
                -1.5449906587600708
            ],
            "type" : "VEC3"
        },
        {
            "bufferView" : 7,
            "componentType" : 5126,
            "count" : 3968,
            "type" : "VEC3"
        },
        {
            "bufferView" : 8,
            "componentType" : 5123,
            "count" : 5760,
            "type" : "SCALAR"
        },
        {
            "bufferView" : 9,
            "componentType" : 5126,
            "count" : 216,
            "max" : [
                3.619546890258789,
                5.418529033660889,
                -0.0019412785768508911
            ],
            "min" : [
                -16.1403751373291,
                -2.9434165954589844,
                -4.468352794647217
            ],
            "type" : "VEC3"
        },
        {
            "bufferView" : 10,
            "componentType" : 5126,
            "count" : 216,
            "type" : "VEC3"
        },
        {
            "bufferView" : 11,
            "componentType" : 5123,
            "count" : 1080,
            "type" : "SCALAR"
        },
        {
            "bufferView" : 12,
            "componentType" : 5126,
            "count" : 25960,
            "max" : [
                4.672542572021484,
                1.2619638442993164,
                1.8353605270385742
            ],
            "min" : [
                -7.787731170654297,
                -2.4558897018432617,
                -1.8230984210968018
            ],
            "type" : "VEC3"
        },
        {
            "bufferView" : 13,
            "componentType" : 5126,
            "count" : 25960,
            "type" : "VEC3"
        },
        {
            "bufferView" : 14,
            "componentType" : 5123,
            "count" : 155520,
            "type" : "SCALAR"
        }
    ],
    "bufferViews" : [
        {
            "buffer" : 0,
            "byteLength" : 9264,
            "byteOffset" : 0
        },
        {
            "buffer" : 0,
            "byteLength" : 9264,
            "byteOffset" : 9264
        },
        {
            "buffer" : 0,
            "byteLength" : 9216,
            "byteOffset" : 18528
        },
        {
            "buffer" : 0,
            "byteLength" : 2952,
            "byteOffset" : 27744
        },
        {
            "buffer" : 0,
            "byteLength" : 2952,
            "byteOffset" : 30696
        },
        {
            "buffer" : 0,
            "byteLength" : 2904,
            "byteOffset" : 33648
        },
        {
            "buffer" : 0,
            "byteLength" : 47616,
            "byteOffset" : 36552
        },
        {
            "buffer" : 0,
            "byteLength" : 47616,
            "byteOffset" : 84168
        },
        {
            "buffer" : 0,
            "byteLength" : 11520,
            "byteOffset" : 131784
        },
        {
            "buffer" : 0,
            "byteLength" : 2592,
            "byteOffset" : 143304
        },
        {
            "buffer" : 0,
            "byteLength" : 2592,
            "byteOffset" : 145896
        },
        {
            "buffer" : 0,
            "byteLength" : 2160,
            "byteOffset" : 148488
        },
        {
            "buffer" : 0,
            "byteLength" : 311520,
            "byteOffset" : 150648
        },
        {
            "buffer" : 0,
            "byteLength" : 311520,
            "byteOffset" : 462168
        },
        {
            "buffer" : 0,
            "byteLength" : 311040,
            "byteOffset" : 773688
        }
    ],
    "buffers" : [
        {
            "byteLength" : 1084728,
            "uri" : "data:application/octet-stream;base64,"
        }
    ]
}
